<?xml version="1.0" standalone="no"?>
<!DOCTYPE svg PUBLIC "-//W3C//DTD SVG 20010904//EN"
 "http://www.w3.org/TR/2001/REC-SVG-20010904/DTD/svg10.dtd">
<svg version="1.0" xmlns="http://www.w3.org/2000/svg"
 width="6812.000000pt" height="3468.000000pt" viewBox="0 0 6812.000000 3468.000000"
 preserveAspectRatio="xMidYMid meet">

<g transform="translate(0.000000,3468.000000) scale(0.100000,-0.100000)"
fill="#000000" stroke="none">
<path d="M32510 34149 c-80 -4 -716 -13 -1415 -19 -698 -6 -1612 -15 -2030
-20 -418 -5 -969 -12 -1225 -15 -256 -3 -627 -7 -825 -10 -198 -3 -538 -7
-755 -10 -217 -3 -424 -8 -460 -11 -75 -6 -205 -22 -326 -39 -44 -6 -45 -6
-184 -31 -52 -9 -108 -18 -125 -21 -16 -2 -61 -11 -100 -20 -38 -8 -81 -17
-95 -19 -14 -3 -33 -7 -42 -10 -9 -3 -27 -7 -40 -9 -74 -14 -362 -88 -568
-146 -179 -50 -719 -230 -805 -268 -11 -5 -38 -15 -60 -24 -45 -17 -235 -93
-280 -113 -949 -410 -1691 -844 -2445 -1429 -1011 -784 -1882 -1731 -2876
-3125 -1254 -1760 -2678 -4255 -3843 -6734 l-136 -289 -40 -13 c-22 -7 -94
-29 -160 -49 -66 -20 -190 -59 -275 -85 -159 -49 -390 -121 -470 -145 -25 -8
-110 -34 -190 -59 -80 -25 -242 -75 -360 -111 -118 -36 -240 -74 -270 -84 -30
-10 -89 -29 -130 -41 -41 -12 -100 -30 -130 -40 -30 -10 -95 -30 -145 -45 -49
-14 -101 -30 -115 -35 -14 -5 -70 -22 -125 -39 -55 -17 -181 -55 -280 -86 -99
-31 -218 -68 -265 -81 -47 -14 -119 -37 -160 -51 -41 -13 -82 -26 -92 -28 -17
-4 -469 -143 -648 -200 -58 -18 -152 -47 -210 -65 -58 -17 -131 -40 -163 -51
-31 -11 -67 -22 -79 -24 -12 -3 -42 -11 -67 -19 -70 -22 -318 -100 -486 -151
-276 -86 -299 -93 -470 -145 -93 -28 -173 -54 -177 -56 -5 -3 -16 -7 -25 -9
-10 -1 -40 -10 -68 -19 -136 -43 -472 -147 -490 -151 -11 -3 -45 -13 -75 -24
-30 -10 -95 -31 -145 -46 -49 -14 -108 -32 -130 -40 -22 -7 -80 -25 -130 -40
-49 -14 -101 -30 -115 -35 -14 -5 -70 -22 -125 -39 -377 -115 -696 -213 -731
-226 -23 -9 -50 -17 -62 -20 -11 -2 -116 -34 -234 -70 -117 -37 -235 -74 -263
-82 -27 -8 -97 -30 -155 -48 -58 -18 -152 -47 -210 -65 -58 -17 -132 -41 -165
-52 -33 -11 -68 -21 -77 -23 -19 -4 -259 -78 -323 -100 -22 -7 -80 -25 -130
-40 -49 -15 -162 -49 -250 -77 -88 -27 -234 -72 -325 -100 -90 -27 -172 -54
-182 -59 -10 -5 -18 -7 -18 -4 0 3 -16 -2 -36 -10 -21 -8 -64 -22 -98 -31
-151 -39 -470 -224 -761 -442 -716 -537 -1195 -1174 -1394 -1856 -55 -186 -72
-278 -101 -521 -9 -76 -7 -512 4 -695 2 -47 7 -184 10 -305 4 -121 8 -274 11
-340 9 -223 22 -802 35 -1590 9 -546 12 -843 25 -1966 l4 -416 -121 -6 c-67
-4 -188 -7 -270 -7 -109 0 -156 -4 -177 -14 -27 -15 -51 -53 -51 -83 0 -21
126 -621 236 -1128 234 -1070 470 -2028 564 -2287 78 -215 188 -386 355 -553
261 -261 610 -428 1004 -480 146 -19 1362 -38 2501 -39 953 0 1132 6 1233 44
140 53 230 194 263 414 12 81 14 151 8 359 l-7 257 105 0 105 0 7 -237 c4
-131 9 -258 11 -283 2 -25 7 -79 10 -120 4 -41 9 -95 11 -120 10 -122 38 -329
61 -450 13 -74 27 -146 29 -160 2 -14 7 -37 10 -52 3 -15 5 -30 5 -33 0 -2 5
-19 10 -37 5 -18 12 -46 15 -63 28 -156 146 -552 239 -800 210 -557 504 -1096
857 -1570 291 -392 687 -807 1078 -1132 217 -179 536 -403 805 -563 135 -80
522 -281 635 -329 30 -13 75 -33 100 -44 347 -154 945 -335 1325 -402 17 -3
80 -14 140 -24 61 -11 139 -23 175 -26 36 -4 76 -9 90 -11 36 -6 107 -14 170
-19 185 -17 291 -20 600 -20 361 0 498 6 705 31 28 3 66 7 85 10 47 5 165 22
275 41 50 8 104 17 120 20 208 34 533 120 845 223 769 255 1501 673 2140 1224
143 123 449 425 579 571 447 501 817 1070 1075 1655 21 47 44 99 51 115 63
142 225 596 240 673 2 12 6 26 9 30 20 32 137 541 162 702 3 25 8 54 10 65 27
176 59 450 63 535 8 224 13 311 17 338 l5 32 10269 0 c8209 0 10270 -3 10271
-12 0 -7 0 -32 -1 -55 l-1 -42 457 -1 c252 0 459 -2 461 -3 1 -2 5 -46 7 -98
6 -100 14 -208 21 -274 2 -22 7 -76 11 -120 3 -44 8 -82 9 -85 2 -3 7 -35 10
-70 6 -60 46 -302 60 -360 3 -14 8 -41 11 -60 3 -19 25 -116 50 -215 25 -99
47 -189 50 -200 15 -74 171 -545 185 -559 5 -6 9 -16 9 -22 0 -22 130 -325
212 -494 681 -1405 1882 -2536 3323 -3128 380 -156 805 -283 1190 -356 87 -17
254 -46 285 -50 19 -3 69 -9 110 -15 41 -6 98 -13 125 -16 28 -2 104 -10 170
-17 197 -20 1017 -16 1132 6 11 2 59 7 109 11 49 4 91 9 94 10 3 2 33 7 65 10
55 6 237 36 310 50 103 20 236 48 270 57 22 5 47 12 55 13 57 12 206 52 330
89 173 52 224 68 238 76 10 5 71 28 137 51 276 96 709 299 1000 470 998 584
1829 1436 2387 2449 119 216 154 288 293 605 17 40 104 268 143 375 34 93 93
281 117 375 19 69 19 72 39 145 19 68 18 65 65 290 21 102 41 203 44 225 3 22
12 85 20 140 9 55 19 132 23 170 3 39 8 78 10 87 3 18 23 299 27 383 l2 50
661 3 661 2 49 -122 c57 -142 150 -310 229 -414 79 -102 236 -250 341 -320
l89 -59 4319 -2 c4252 -3 4320 -3 4382 -23 249 -76 551 -68 748 22 216 98 398
278 497 492 19 41 37 111 54 211 14 83 28 161 31 175 22 130 34 201 40 234 6
40 8 49 23 131 6 28 12 64 15 80 2 17 25 145 50 285 25 140 48 278 52 305 3
28 8 53 10 56 2 4 22 112 44 240 22 129 51 299 65 379 14 80 28 159 31 175 12
74 14 88 48 275 14 74 27 153 31 175 6 44 12 77 20 115 3 14 12 63 20 110 8
47 28 164 45 260 17 96 39 225 50 285 10 61 21 122 24 138 6 31 22 125 31 177
13 75 25 141 54 305 17 93 28 178 26 190 -2 11 -6 38 -9 60 -19 144 -76 297
-159 428 -88 138 -256 280 -420 357 -101 48 -283 99 -407 115 -90 12 -376 17
-428 7 l-53 -9 5 361 c20 1289 25 1625 31 1841 3 105 7 296 10 425 6 261 20
702 32 1000 12 307 10 713 -5 810 -25 163 -62 329 -103 461 -22 72 -45 139
-49 148 -5 9 -20 47 -34 84 -105 275 -321 624 -555 897 -92 108 -330 347 -444
447 -277 243 -679 518 -927 636 -41 19 -376 128 -745 241 -368 114 -733 226
-810 251 -77 24 -214 67 -305 94 -91 28 -232 71 -315 97 -158 49 -250 77 -325
100 -25 7 -133 40 -240 74 -107 33 -226 70 -265 82 -38 12 -95 29 -125 39 -65
21 -437 136 -600 185 -140 43 -366 113 -400 124 -14 4 -65 20 -115 35 -49 16
-137 43 -195 61 -58 18 -166 51 -240 74 -124 38 -191 59 -550 170 -271 83
-399 123 -480 147 -47 14 -110 34 -140 44 -30 11 -64 21 -75 24 -18 4 -354
108 -490 151 -27 9 -58 18 -68 19 -9 2 -20 6 -25 9 -4 2 -84 28 -177 56 -176
54 -217 66 -470 145 -82 25 -202 62 -265 81 -63 20 -149 46 -191 60 -41 13
-85 26 -97 29 -12 2 -48 13 -79 23 -32 11 -110 36 -173 55 -63 20 -187 58
-275 85 -88 28 -221 69 -295 91 -74 23 -198 61 -275 85 -77 25 -180 57 -230
71 -49 15 -108 33 -130 41 -36 12 -514 159 -640 197 -27 8 -117 36 -200 62
-82 25 -159 48 -169 51 -11 2 -23 7 -27 11 -4 5 -61 123 -127 263 -1052 2247
-2403 4653 -3563 6343 -1332 1939 -2462 3119 -3880 4050 -182 119 -516 322
-649 394 -41 22 -133 72 -205 110 -220 119 -535 270 -815 390 -184 79 -254
107 -530 210 -144 54 -574 194 -715 233 -237 65 -328 89 -357 94 -15 3 -31 7
-35 9 -5 3 -24 8 -43 11 -19 3 -44 8 -55 11 -58 14 -397 84 -439 89 -27 4 -52
9 -55 10 -3 2 -33 7 -66 11 -33 4 -69 9 -80 11 -221 36 -332 43 -785 49 -212
3 -554 7 -760 10 -1177 15 -1829 23 -2575 30 -302 3 -662 7 -800 10 -137 3
-650 8 -1140 11 -489 3 -908 8 -930 11 -64 9 -2106 11 -2265 2z m6190 -1479
c1488 -20 2186 -39 2366 -65 1076 -157 2231 -975 3475 -2460 1341 -1601 2806
-4048 4142 -6915 294 -632 687 -1523 687 -1559 0 -8 -1945 -10 -7627 -9
l-7628 3 -3 5500 c-1 3025 0 5506 3 5514 5 12 275 13 1928 8 1057 -4 2253 -11
2657 -17z m-5982 -5497 l-3 -5508 -6542 -3 -6543 -2 0 1572 c0 1229 -3 1578
-13 1597 -6 13 -25 34 -40 45 -26 19 -42 21 -163 21 -74 0 -134 2 -134 4 0 9
326 631 438 836 1472 2697 3168 4704 4985 5899 750 494 1557 855 2170 971 131
24 139 25 997 35 1313 15 3337 33 4363 38 l487 2 -2 -5507z m12603 5327 c1194
-718 2173 -1596 3174 -2845 1240 -1549 2563 -3697 3911 -6350 265 -522 724
-1471 724 -1496 0 -5 -322 -9 -718 -9 l-718 0 -109 238 c-955 2074 -2395 4290
-4359 6712 -264 325 -833 1007 -1186 1420 -926 1085 -1060 1251 -1137 1405
-136 272 -111 562 75 855 41 66 132 190 139 190 2 0 94 -54 204 -120z m-23195
-5 c365 -120 572 -294 590 -498 6 -66 -13 -173 -41 -228 -9 -16 -82 -107 -163
-202 -562 -654 -1465 -1761 -2103 -2577 -2194 -2804 -3745 -5149 -4540 -6863
-39 -83 -71 -153 -73 -154 -2 -2 -1637 -153 -1660 -153 -32 0 599 1289 1072
2190 1348 2570 2697 4669 3903 6075 251 293 425 482 684 740 450 450 892 827
1383 1180 306 221 781 525 819 525 12 0 70 -16 129 -35z m-3226 -9370 l0 -974
-22 -13 c-32 -17 -219 -22 -307 -9 -87 14 -120 29 -171 82 -114 117 -155 340
-155 834 0 241 4 322 19 415 42 265 88 382 191 485 102 101 224 153 368 154
l77 1 0 -975z m10799 -3044 c172 -88 148 -329 -38 -381 -50 -14 -834 -13 -884
1 -21 6 -56 26 -77 45 -106 96 -86 265 39 331 l44 23 439 0 c415 0 441 -1 477
-19z m16579 4 c101 -43 151 -166 109 -268 -19 -44 -87 -103 -134 -116 -52 -15
-834 -15 -887 0 -49 14 -122 80 -137 126 -6 19 -9 62 -7 94 5 68 39 119 104
156 39 23 42 23 477 23 373 0 443 -2 475 -15z m17887 -3081 c326 -83 582 -404
676 -844 29 -138 32 -406 6 -550 -68 -371 -274 -681 -542 -818 -131 -66 -315
-90 -459 -58 -354 79 -643 452 -712 916 -23 162 -15 404 19 550 136 577 565
918 1012 804z m-59769 -199 c698 -122 1245 -815 1370 -1735 21 -152 24 -498 5
-645 -62 -496 -237 -922 -516 -1254 -227 -271 -544 -462 -854 -516 -110 -20
-325 -19 -437 0 -182 32 -387 121 -557 242 -103 73 -275 243 -356 351 -447
594 -588 1449 -367 2218 161 558 499 1005 924 1218 94 47 256 101 358 120 108
19 320 20 430 1z m61239 -5645 c-11 -5 -2143 -363 -4738 -795 -2595 -433
-4743 -795 -4773 -805 -171 -59 -321 -183 -387 -320 l-37 -75 0 40 c0 112 60
274 138 371 47 60 138 124 220 154 31 12 141 37 244 56 584 107 2847 446 6363
954 688 99 1635 236 2105 304 470 68 862 124 870 124 9 1 7 -3 -5 -8z m-51645
-340 c898 -54 1699 -385 2374 -981 1130 -998 1590 -2586 1171 -4046 -389
-1353 -1475 -2402 -2830 -2733 -360 -88 -608 -115 -1005 -107 -359 7 -539 30
-857 107 -952 234 -1795 835 -2336 1667 -330 507 -537 1070 -612 1664 -36 289
-36 698 0 989 163 1299 961 2434 2125 3024 620 314 1295 457 1970 416z m34408
-16 c1612 -167 2963 -1337 3376 -2924 130 -496 159 -1048 85 -1565 -157 -1097
-783 -2092 -1699 -2705 -520 -347 -1066 -552 -1700 -637 -194 -26 -747 -26
-940 0 -863 116 -1616 475 -2224 1058 -784 752 -1216 1767 -1216 2853 0 627
128 1184 400 1741 186 382 416 708 720 1019 393 403 849 707 1360 909 411 163
740 233 1265 271 93 7 429 -5 573 -20z m-42498 -660 c-14 -2 -896 -81 -1960
-175 -1064 -94 -1938 -174 -1942 -177 -4 -4 29 -511 73 -1127 44 -616 78
-1133 77 -1148 -2 -16 -138 547 -302 1250 -165 703 -305 1302 -312 1331 l-12
52 2201 -1 c1211 -1 2191 -4 2177 -5z m-3743 -2686 c-3 -8 -6 -5 -6 6 -1 11 2
17 5 13 3 -3 4 -12 1 -19z"/>
<path d="M13565 10660 c-235 -14 -572 -67 -730 -114 -34 -11 -53 -12 -70 -4
-18 8 -49 1 -159 -36 -248 -82 -594 -240 -603 -274 -2 -9 -67 -55 -144 -101
-325 -194 -656 -471 -903 -756 -43 -49 -88 -92 -99 -95 -30 -8 -100 -96 -225
-285 -142 -213 -236 -387 -228 -420 4 -17 -4 -45 -28 -92 -79 -159 -184 -453
-240 -678 -128 -511 -146 -1082 -50 -1603 43 -239 114 -487 205 -717 51 -130
177 -387 243 -498 25 -43 46 -87 46 -96 0 -26 123 -206 244 -358 112 -140 301
-343 320 -343 7 0 32 -21 56 -46 122 -125 408 -349 591 -463 487 -303 988
-479 1569 -553 166 -21 700 -18 870 5 808 109 1488 428 2090 979 267 244 547
599 727 923 458 822 596 1786 386 2695 -73 319 -169 582 -318 876 -51 100 -95
193 -99 207 -9 39 -213 339 -323 477 -126 157 -329 370 -353 370 -10 0 -42 22
-72 49 -258 235 -634 481 -958 627 -320 143 -783 278 -1025 298 -38 3 -115 10
-170 15 -157 15 -397 20 -550 11z m615 -128 l55 -7 3 -180 2 -181 -107 13
c-137 17 -534 19 -678 4 -143 -15 -364 -54 -489 -85 -55 -14 -101 -24 -104
-22 -9 10 -52 340 -45 346 25 23 426 99 628 120 99 10 648 4 735 -8z m318 -47
c201 -44 385 -99 572 -172 63 -25 116 -47 118 -48 2 -2 -51 -85 -117 -185
-291 -438 -523 -915 -684 -1405 -112 -340 -157 -554 -157 -741 0 -107 19 -240
45 -313 8 -24 14 -45 12 -47 -1 -1 -31 15 -65 37 -141 90 -323 136 -487 125
-77 -5 -146 -19 -250 -51 -11 -3 3 5 32 19 388 184 644 696 762 1526 39 276
71 686 71 918 0 169 12 362 22 362 4 0 61 -11 126 -25z m-1728 -540 c99 -509
275 -1026 506 -1486 113 -227 235 -411 333 -503 17 -17 31 -33 31 -38 0 -5
-34 -31 -76 -58 -97 -63 -209 -100 -329 -107 l-90 -6 -1 124 c-2 137 -12 217
-50 389 -104 464 -425 1124 -873 1794 l-90 133 107 51 c129 61 181 82 337 137
l120 43 22 -157 c12 -86 36 -228 53 -316z m2613 234 c180 -91 427 -245 579
-361 152 -115 280 -230 274 -245 -10 -26 -181 -262 -190 -263 -4 0 -38 26 -75
59 -198 175 -436 335 -693 466 l-178 91 96 142 c52 78 102 142 110 142 8 0 43
-14 77 -31z m-3245 -201 c49 -73 91 -138 95 -144 4 -8 -28 -31 -86 -64 -319
-181 -644 -446 -879 -717 -45 -51 -84 -92 -87 -91 -14 7 -221 230 -221 238 0
17 174 212 286 320 206 200 425 370 664 514 69 42 128 76 132 76 4 0 47 -60
96 -132z m1927 92 c55 -5 116 -12 135 -15 l35 -6 -3 -87 c-4 -115 -29 -443
-35 -448 -2 -2 -35 0 -73 6 -116 18 -448 24 -589 11 -149 -14 -302 -40 -432
-74 l-91 -24 -26 91 c-35 127 -52 194 -79 323 l-25 112 127 30 c168 40 274 59
423 75 146 16 492 19 633 6z m1100 -304 c257 -122 555 -321 760 -508 l50 -46
-79 -103 c-44 -57 -120 -152 -169 -212 l-89 -107 -71 66 c-191 176 -479 362
-725 467 l-63 27 27 52 c85 167 229 418 240 418 3 0 56 -24 119 -54z m-2830
-101 c53 -81 237 -406 233 -409 -1 -1 -39 -22 -83 -45 -258 -136 -545 -373
-761 -625 -39 -46 -54 -57 -66 -50 -18 10 -229 191 -328 282 l-65 59 87 100
c178 204 408 407 633 558 106 71 292 182 308 184 4 1 23 -24 42 -54z m4284
-460 c111 -141 263 -367 253 -376 -4 -4 -47 -21 -97 -39 -573 -208 -1125 -520
-1620 -916 -229 -182 -427 -405 -484 -542 -7 -18 -18 -32 -23 -32 -5 0 -49 40
-97 88 -72 71 -96 104 -129 172 -23 47 -43 100 -44 118 l-3 34 85 24 c90 27
252 100 353 160 293 175 637 494 993 919 121 145 405 520 484 638 l45 67 100
-103 c55 -57 138 -152 184 -212z m-5303 -527 c471 -423 1063 -811 1464 -961
226 -84 488 -101 665 -42 11 4 -8 -9 -41 -27 -229 -128 -381 -325 -441 -573
-24 -102 -21 -286 6 -389 75 -283 284 -506 561 -598 89 -30 104 -32 245 -32
180 -1 233 11 385 86 95 46 115 61 210 157 87 87 114 122 153 198 65 125 97
253 97 390 0 104 -20 229 -46 292 -8 19 -13 36 -11 38 2 1 39 -18 83 -45 464
-278 1345 -291 2552 -36 95 20 176 33 180 29 19 -19 3 -671 -17 -704 -6 -9
-47 0 -167 37 -615 192 -1224 284 -1789 269 -219 -6 -318 -20 -463 -68 -243
-80 -429 -248 -518 -469 -210 -517 -12 -1385 586 -2580 l80 -161 -42 -18 c-80
-33 -299 -103 -311 -98 -7 3 -19 61 -30 153 -72 597 -269 1255 -541 1809 -175
356 -331 537 -565 654 -182 92 -416 99 -652 21 -477 -160 -1080 -706 -1713
-1552 -49 -65 -91 -118 -95 -118 -27 0 -433 511 -419 526 3 2 65 30 139 62
630 277 1232 676 1655 1097 256 256 365 474 367 735 1 266 -110 488 -377 755
-201 200 -414 356 -746 546 -273 156 -770 386 -1102 510 -65 24 -118 48 -118
52 0 25 183 319 283 455 l39 54 168 -174 c92 -95 221 -221 286 -280z m5686
-93 c176 -339 299 -707 362 -1083 24 -141 31 -212 23 -212 -2 0 -68 -13 -145
-30 -78 -16 -146 -30 -150 -30 -5 0 -14 44 -21 98 -51 399 -205 848 -413 1205
-22 38 -36 73 -32 77 15 13 278 110 294 107 8 -1 44 -61 82 -132z m-436 -121
c161 -275 292 -623 358 -954 26 -130 51 -299 45 -305 -5 -3 -409 -71 -486 -80
l-53 -7 0 31 c0 116 -79 467 -145 647 -44 121 -150 341 -210 441 -25 41 -45
77 -45 82 0 12 449 239 477 241 1 0 28 -43 59 -96z m-5861 -31 c50 -19 93 -37
97 -42 5 -4 -19 -66 -52 -139 -158 -349 -261 -746 -286 -1100 -7 -86 -8 -91
-28 -87 -12 3 -75 16 -141 30 -66 14 -127 28 -135 30 -14 4 -15 18 -8 98 34
398 154 846 320 1199 l41 87 51 -21 c28 -11 92 -36 141 -55z m339 -143 c63
-28 172 -77 241 -110 l126 -59 -24 -48 c-147 -291 -244 -649 -272 -1006 l-7
-87 -67 6 c-68 6 -353 40 -428 50 -51 8 -51 2 -28 204 31 269 104 561 202 809
44 113 129 291 138 291 2 0 56 -23 119 -50z m2825 -670 c357 -45 620 -329 638
-690 11 -218 -62 -405 -219 -562 -64 -63 -95 -85 -180 -127 -158 -78 -298 -98
-460 -67 -259 50 -466 232 -555 489 -37 107 -44 291 -14 406 75 299 312 511
615 550 88 12 84 12 175 1z m-1129 -646 c22 -61 24 -86 25 -211 0 -78 -3 -145
-8 -149 -4 -4 -42 5 -85 19 -107 37 -228 64 -352 78 -147 16 -513 6 -710 -21
-361 -48 -815 -157 -1262 -303 l-166 -54 -11 81 c-23 165 -31 275 -31 434 0
89 3 162 6 162 3 0 82 -16 175 -35 415 -85 679 -110 1174 -110 585 1 878 40
1125 150 41 18 80 32 85 31 6 -1 21 -33 35 -72z m3942 -455 c257 -58 279 -65
273 -92 -2 -12 -12 -62 -20 -112 -40 -223 -118 -479 -212 -695 -53 -122 -150
-310 -159 -310 -7 0 -445 217 -463 229 -12 8 -3 32 51 138 124 242 208 491
250 743 11 69 22 131 24 138 5 16 18 14 256 -39z m-5527 -126 c56 -301 171
-604 329 -867 36 -60 65 -110 63 -111 -45 -34 -447 -255 -463 -255 -15 0 -128
196 -203 351 -94 196 -164 389 -216 593 -23 94 -46 188 -49 208 l-7 37 68 20
c89 26 423 115 454 120 3 1 14 -43 24 -96z m3653 -8 c328 -437 1022 -891 2005
-1310 48 -21 87 -39 87 -41 0 -12 -133 -213 -204 -309 -83 -111 -213 -268
-225 -272 -3 -1 -35 39 -71 89 -150 208 -418 517 -618 710 -311 300 -701 604
-921 717 -105 54 -291 121 -335 121 -17 0 -26 5 -26 16 0 25 57 155 90 204 33
50 140 162 151 158 3 -2 34 -39 67 -83z m2417 -15 c72 -23 134 -46 139 -51 5
-4 2 -47 -8 -101 -59 -327 -179 -683 -333 -993 -25 -49 -46 -91 -48 -93 -2 -2
-145 56 -247 102 l-56 25 69 135 c143 278 251 595 304 891 23 131 25 137 38
132 7 -2 71 -23 142 -47z m-6685 -230 c73 -330 228 -707 406 -987 l32 -51
-126 -55 c-201 -88 -174 -88 -225 1 -123 213 -237 470 -312 703 -53 164 -106
377 -108 433 l-2 40 145 46 c126 41 146 45 151 31 4 -9 21 -81 39 -161z m2885
-205 c106 -27 285 -125 285 -156 0 -6 -18 -31 -39 -57 -105 -126 -259 -408
-346 -630 -94 -245 -186 -562 -256 -886 -44 -206 -110 -589 -130 -754 -10 -86
-15 -102 -28 -98 -9 3 -45 12 -81 21 -87 22 -253 75 -263 84 -4 4 29 78 74
165 301 585 498 1193 596 1846 17 119 24 401 10 453 l-7 27 63 0 c34 0 90 -7
122 -15z m2601 -1109 c52 -60 94 -112 94 -116 0 -14 -229 -229 -327 -307 -235
-187 -495 -344 -749 -453 l-45 -20 -46 98 c-25 53 -72 160 -105 237 -33 77
-62 143 -64 146 -2 4 74 45 169 92 279 138 519 309 722 517 l90 91 83 -88 c46
-48 126 -137 178 -197z m-3942 5 c205 -167 428 -300 663 -397 48 -20 92 -39
96 -44 16 -14 -182 -490 -203 -490 -22 0 -190 74 -335 148 -244 125 -518 318
-725 509 l-75 70 150 177 c83 97 161 190 174 206 l25 28 79 -74 c44 -41 111
-101 151 -133z m4214 -336 c51 -68 95 -131 98 -138 3 -8 -41 -59 -114 -129
-196 -189 -402 -346 -644 -492 -133 -80 -400 -216 -424 -216 -17 0 -169 300
-157 310 4 4 33 17 63 29 330 137 743 422 1015 700 33 34 62 61 65 61 3 0 47
-57 98 -125z m-4563 -218 c252 -196 547 -363 843 -478 23 -9 23 -10 -55 -160
-43 -83 -83 -153 -89 -156 -16 -6 -273 113 -408 188 -264 148 -509 326 -734
535 l-64 59 103 137 102 136 106 -96 c58 -52 147 -127 196 -165z m2742 -139
c47 -192 78 -346 72 -352 -8 -9 -249 -56 -369 -72 -179 -25 -624 -25 -805 0
-121 16 -265 43 -272 49 -4 5 94 513 101 524 1 1 49 -6 106 -17 322 -57 725
-50 1025 19 44 10 85 19 91 20 5 0 29 -77 51 -171z m115 -595 c9 -67 18 -145
20 -174 l3 -53 -105 -22 c-278 -57 -534 -79 -825 -71 -115 3 -250 11 -300 17
-129 15 -339 50 -347 58 -5 6 37 342 44 347 2 1 64 -8 138 -21 202 -34 332
-44 557 -44 236 0 443 19 633 59 74 16 142 28 150 27 11 -1 19 -30 32 -123z"/>
<path d="M13592 7580 c-305 -82 -522 -366 -522 -685 0 -324 216 -607 530 -691
98 -27 264 -24 360 5 204 62 354 189 445 376 136 276 84 587 -135 805 -94 94
-162 139 -272 177 -101 37 -297 43 -406 13z"/>
<path d="M47775 10660 c-226 -13 -495 -55 -704 -110 -52 -13 -80 -16 -93 -9
-53 28 -750 -255 -765 -310 -3 -12 -35 -37 -79 -61 -116 -64 -334 -213 -473
-323 -140 -112 -395 -357 -502 -483 -40 -48 -80 -85 -94 -88 -68 -17 -445
-604 -451 -701 -1 -23 -27 -98 -62 -175 -155 -350 -254 -731 -298 -1143 -20
-191 -14 -669 10 -847 71 -512 228 -983 464 -1393 34 -59 62 -115 62 -124 0
-25 133 -218 254 -370 275 -342 718 -712 1132 -944 413 -232 848 -375 1354
-446 160 -22 706 -25 875 -5 861 106 1616 472 2225 1082 636 635 1009 1431
1096 2335 19 202 14 610 -10 793 -65 487 -212 950 -426 1342 -33 61 -60 117
-60 126 0 34 -179 299 -331 492 -103 130 -325 362 -348 362 -9 1 -63 42 -121
92 -492 425 -1067 708 -1725 849 -211 45 -669 74 -930 59z m560 -123 l110 -12
5 -35 c3 -19 4 -100 2 -180 l-4 -145 -107 13 c-158 19 -546 18 -715 -3 -174
-20 -323 -47 -450 -80 -54 -14 -100 -24 -102 -22 -8 7 -52 343 -46 348 10 10
211 56 342 78 100 17 217 33 340 44 87 9 526 4 625 -6z m349 -47 c134 -27 243
-56 371 -97 150 -48 345 -124 345 -134 0 -5 -22 -39 -48 -76 -357 -502 -663
-1153 -832 -1772 -91 -331 -102 -568 -36 -775 l23 -72 -51 34 c-68 47 -159 87
-253 114 -131 37 -335 29 -478 -17 -11 -4 8 9 43 28 482 268 739 1020 792
2317 5 129 10 288 10 353 0 64 4 117 9 117 5 0 52 -9 105 -20z m-1754 -230
c86 -619 271 -1220 551 -1785 102 -208 195 -354 299 -474 l73 -84 -34 -29
c-87 -73 -273 -138 -397 -138 l-59 0 -6 143 c-4 78 -13 183 -22 232 -90 505
-384 1141 -871 1883 -63 95 -114 175 -114 177 0 7 105 58 215 105 90 39 338
130 342 127 0 -1 11 -72 23 -157z m2856 -186 c127 -73 265 -164 379 -249 113
-85 285 -233 285 -245 0 -5 -43 -70 -96 -145 l-96 -135 -76 69 c-193 174 -489
371 -743 493 l-126 62 35 55 c19 31 64 97 100 148 l64 92 88 -44 c48 -24 132
-69 186 -101z m-3428 -106 c51 -78 89 -145 85 -149 -4 -4 -53 -33 -108 -64
-339 -195 -661 -465 -909 -765 l-29 -35 -113 119 c-63 66 -114 122 -114 126 0
15 140 171 259 290 171 170 344 314 531 441 93 62 283 178 295 178 6 1 52 -63
103 -141z m1922 102 c52 -5 112 -12 133 -16 l39 -6 -6 -82 c-3 -44 -11 -161
-17 -258 -7 -97 -15 -182 -19 -188 -5 -8 -28 -7 -81 2 -47 8 -170 13 -339 13
-295 0 -400 -12 -636 -69 l-131 -32 -36 136 c-48 177 -92 378 -85 385 21 22
396 95 583 114 114 12 483 12 595 1z m1133 -321 c217 -109 415 -236 594 -380
96 -78 173 -149 173 -160 0 -19 -315 -409 -330 -409 -4 0 -37 26 -71 58 -93
83 -219 180 -339 258 -103 68 -401 224 -427 224 -7 0 -13 5 -13 12 0 15 132
268 199 381 61 103 42 101 214 16z m-2801 -191 c138 -236 173 -301 161 -305
-22 -8 -192 -108 -270 -159 -213 -141 -452 -359 -593 -542 l-26 -32 -125 107
c-69 60 -160 140 -202 179 l-76 72 66 78 c164 196 411 416 643 573 102 70 306
191 320 191 3 0 49 -73 102 -162z m4194 -323 c125 -154 289 -394 277 -405 -4
-5 -59 -27 -122 -50 -655 -240 -1405 -695 -1812 -1100 -130 -129 -193 -210
-249 -317 -39 -75 -41 -75 -146 32 -56 56 -82 93 -118 166 -25 52 -47 107 -48
122 -3 28 0 30 82 53 510 149 1110 704 1795 1663 l89 125 74 -80 c40 -43 120
-137 178 -209z m-5605 -235 c446 -481 1080 -952 1634 -1216 320 -152 603 -185
850 -99 11 4 -15 -11 -58 -33 -235 -121 -401 -337 -453 -588 -12 -57 -15 -113
-12 -208 4 -114 9 -143 37 -226 88 -261 278 -450 542 -542 91 -32 99 -33 254
-33 155 0 163 1 255 33 226 78 398 229 500 437 104 214 112 460 23 692 -3 8
27 -7 66 -32 438 -283 1279 -307 2470 -69 151 30 277 52 280 48 19 -19 5 -693
-15 -713 -2 -2 -70 17 -152 42 -390 123 -739 198 -1117 241 -380 44 -811 46
-998 6 -393 -84 -627 -297 -717 -653 -126 -503 85 -1337 601 -2369 60 -120
109 -222 109 -226 0 -11 -347 -129 -355 -121 -3 4 -15 74 -25 155 -77 594
-248 1185 -503 1729 -131 280 -218 415 -357 555 -310 312 -705 338 -1170 75
-409 -231 -898 -711 -1405 -1378 l-127 -169 -35 34 c-84 80 -322 376 -375 466
l-17 29 102 43 c601 254 1241 671 1671 1089 149 146 233 256 301 396 148 305
123 572 -83 885 -69 105 -261 304 -402 417 -345 277 -880 567 -1522 823 -112
44 -213 85 -226 91 l-24 9 43 78 c86 157 273 437 288 430 3 -2 59 -59 122
-128z m5959 -312 c45 -74 162 -322 213 -453 111 -282 185 -571 230 -906 l5
-36 -146 -32 c-81 -17 -153 -31 -159 -31 -8 0 -13 14 -13 34 0 50 -36 254 -70
396 -71 293 -195 606 -339 854 -28 49 -49 91 -47 94 8 8 280 111 294 112 7 0
21 -15 32 -32z m-321 -337 c116 -228 196 -434 260 -671 27 -101 68 -319 76
-406 l7 -70 -158 -27 c-88 -15 -206 -34 -263 -43 -115 -18 -121 -16 -121 43 0
47 -36 250 -65 366 -57 223 -151 456 -269 662 -37 64 -66 118 -64 120 18 14
214 114 328 167 l145 68 22 -27 c12 -15 58 -97 102 -182z m-5937 88 l128 -50
-40 -79 c-159 -316 -276 -737 -311 -1121 l-12 -126 -71 14 c-39 7 -107 22
-151 32 l-80 18 2 81 c6 307 135 808 308 1196 46 103 47 105 74 95 14 -6 83
-33 153 -60z m426 -181 c174 -78 292 -136 292 -143 0 -3 -16 -37 -35 -75 -134
-267 -225 -601 -255 -939 -5 -63 -11 -115 -13 -117 -8 -8 -523 51 -535 61 -6
5 19 235 39 355 46 290 160 645 286 893 28 57 10 60 221 -35z m2842 -654 c87
-20 211 -82 286 -143 117 -95 219 -263 250 -411 23 -111 15 -280 -19 -385
-148 -454 -684 -645 -1085 -389 -363 233 -442 751 -164 1087 176 214 450 304
732 241z m-1220 -621 c31 -100 42 -205 30 -293 -5 -41 -10 -77 -10 -80 0 -3
-51 11 -112 31 -165 54 -272 70 -511 76 -362 9 -722 -39 -1212 -163 -176 -45
-529 -149 -671 -198 l-72 -24 -11 91 c-28 221 -43 587 -25 587 4 0 84 -16 178
-35 193 -39 369 -66 596 -92 227 -25 888 -25 1120 0 284 32 429 65 580 131 41
19 80 34 87 35 7 1 22 -29 33 -66z m3806 -433 c139 -28 387 -89 402 -98 36
-23 -91 -519 -202 -785 -39 -95 -146 -311 -168 -340 -13 -17 -28 -11 -248 98
-129 64 -237 119 -239 120 -2 2 17 41 42 87 143 263 235 546 293 906 3 17 9
32 13 32 5 0 53 -9 107 -20z m-5406 -66 c0 -4 11 -62 25 -129 60 -297 169
-577 327 -838 33 -55 58 -100 56 -102 -11 -11 -234 -139 -337 -193 l-124 -65
-21 26 c-38 48 -157 265 -212 388 -100 224 -168 432 -219 670 l-23 109 57 17
c62 18 452 121 464 122 4 1 7 -2 7 -5z m3676 -106 c285 -383 897 -803 1714
-1176 107 -49 236 -106 287 -127 l91 -38 -26 -41 c-103 -164 -259 -378 -370
-504 l-38 -44 -101 134 c-320 421 -676 782 -1088 1103 -267 208 -505 343 -686
390 -112 28 -111 25 -43 163 32 66 65 113 111 163 36 38 69 69 73 69 3 0 38
-42 76 -92z m2420 -12 c115 -38 141 -50 138 -64 -2 -9 -15 -78 -30 -152 -32
-164 -96 -391 -159 -560 -40 -106 -202 -460 -211 -460 -5 0 -288 122 -293 126
-2 2 30 72 72 156 148 298 245 590 302 911 11 62 22 97 29 94 6 -2 75 -25 152
-51z m-6726 -73 c0 -30 52 -248 87 -363 70 -235 210 -549 332 -745 l49 -80
-35 -19 c-20 -10 -88 -40 -151 -67 -134 -58 -110 -70 -207 108 -161 296 -299
669 -365 988 -11 54 -19 100 -16 102 8 9 292 100 299 96 4 -2 7 -11 7 -20z
m2919 -358 c70 -17 181 -69 248 -117 23 -17 43 -33 43 -35 0 -1 -25 -33 -55
-70 -30 -38 -88 -125 -130 -194 -263 -441 -463 -1131 -591 -2044 -9 -66 -17
-121 -18 -122 -6 -7 -345 94 -359 106 -4 4 20 59 54 122 234 433 438 990 543
1482 75 345 90 463 91 685 l0 202 55 0 c30 0 84 -7 119 -15z m2559 -1063 c70
-78 128 -148 130 -155 4 -18 -212 -226 -337 -326 -199 -158 -431 -302 -651
-402 -69 -32 -128 -55 -131 -51 -18 21 -209 461 -209 481 0 5 10 13 23 17 46
14 246 115 343 173 185 110 448 322 569 459 l38 43 49 -48 c27 -26 107 -112
176 -191z m-4029 70 c248 -225 549 -417 813 -518 43 -16 78 -34 78 -41 0 -12
-129 -336 -171 -430 -13 -29 -29 -53 -35 -53 -18 0 -197 77 -308 132 -264 133
-525 315 -764 535 l-63 58 78 97 c101 124 262 308 269 308 4 0 50 -39 103 -88z
m4327 -429 c45 -60 89 -121 99 -137 l19 -29 -124 -121 c-193 -187 -411 -354
-643 -492 -119 -71 -400 -214 -419 -214 -7 0 -48 68 -90 151 l-77 152 197 98
c321 159 591 348 827 581 66 64 122 118 125 118 3 0 42 -48 86 -107z m-4731
-83 c280 -249 635 -473 960 -605 39 -16 74 -32 78 -36 8 -6 -112 -247 -146
-293 -13 -18 -19 -16 -145 39 -301 131 -628 340 -885 564 -184 160 -181 157
-174 174 11 30 188 258 197 255 5 -2 57 -46 115 -98z m2919 -267 c20 -82 47
-200 60 -264 l23 -116 -101 -22 c-436 -91 -883 -95 -1302 -10 l-51 10 18 103
c10 57 34 175 52 263 29 141 35 158 53 156 10 -1 82 -12 159 -25 203 -32 587
-32 790 0 77 13 165 29 195 37 30 7 58 14 61 14 4 1 23 -65 43 -146z m120
-620 c9 -71 17 -150 19 -178 l2 -49 -110 -23 c-252 -53 -409 -67 -725 -67
-300 0 -408 8 -647 51 -110 19 -103 -2 -71 221 18 128 24 152 37 147 37 -11
269 -45 385 -56 285 -26 731 1 991 61 44 10 85 19 91 19 7 1 18 -47 28 -126z"/>
<path d="M47815 7584 c-33 -8 -98 -33 -145 -56 -69 -34 -103 -60 -176 -133
-78 -77 -98 -104 -137 -185 -102 -211 -102 -421 -2 -625 93 -190 239 -313 445
-376 96 -29 261 -31 360 -5 314 85 530 366 530 691 0 321 -220 607 -526 685
-93 24 -258 26 -349 4z"/>
</g>
</svg>
